<svg width="22" height="22" viewBox="0 0 22 22" fill="none" xmlns="http://www.w3.org/2000/svg">
<path d="M6.17578 8.92969C7.60503 8.92969 8.76367 7.88691 8.76367 6.60059C8.76367 5.31426 7.60503 4.27148 6.17578 4.27148C4.74653 4.27148 3.58789 5.31426 3.58789 6.60059C3.58789 7.88691 4.74653 8.92969 6.17578 8.92969Z" stroke="#43474E" stroke-width="2" stroke-linecap="square"/>
<path d="M20.668 12.0352H1" stroke="#43474E" stroke-width="2" stroke-linecap="square"/>
<path d="M16.7754 4.58691H12.1172M16.7754 7.1748H12.1172" stroke="#43474E" stroke-width="2" stroke-linecap="square"/>
<path d="M3.9502 1.16602H17.7178C18.5002 1.16602 19.2506 1.47684 19.8039 2.03011C20.3571 2.58338 20.668 3.33377 20.668 4.11621V20.834H1V4.11621C1 3.33377 1.31082 2.58338 1.86409 2.03011C2.41736 1.47684 3.16775 1.16602 3.9502 1.16602Z" stroke="#43474E" stroke-width="2" stroke-linecap="square"/>
</svg>
